<svg width="24" height="24" viewBox="0 0 24 24" fill="none" xmlns="http://www.w3.org/2000/svg">
<path d="M18.7092 9.28866C18.5215 9.10392 18.2659 9 17.9993 9C17.7327 9 17.4771 9.10392 17.2894 9.28866L12.7099 13.7581C12.5222 13.9428 12.2666 14.0468 12 14.0468C11.7334 14.0468 11.4778 13.9428 11.2901 13.7581L6.7106 9.28866C6.52285 9.10392 6.26729 9 6.00068 9C5.73407 9 5.47851 9.10392 5.29076 9.28866C4.90308 9.66928 4.90308 10.284 5.29076 10.6646L9.88024 15.1438C11.0514 16.2854 12.9486 16.2854 14.1198 15.1438L18.7092 10.6646C19.0969 10.284 19.0969 9.66928 18.7092 9.28866Z" fill="black"/>
</svg>
