<svg width="28" height="28" viewBox="0 0 28 28" fill="none" xmlns="http://www.w3.org/2000/svg">
<path d="M1.74455 11.4128L2.83095 12.0792C3.72695 12.628 4.65375 13.1208 5.61135 13.552C6.56615 13.9832 7.54895 14.3528 8.55415 14.6608L8.96295 14.784L19.687 18.0628L22.3358 18.872C23.2262 19.1436 23.9962 19.3788 23.9962 19.3788C24.5282 19.5412 25.2058 19.5272 25.7154 19.292C26.0122 19.1548 26.2698 18.9028 26.3482 18.5836C26.4182 18.2924 26.3314 17.9788 26.169 17.7268C26.127 17.6624 26.0822 17.6008 26.0374 17.5448C25.735 17.1752 25.3094 16.9176 24.881 16.7132C24.4638 16.5116 24.223 16.1084 23.8758 15.8228C23.5902 15.5876 23.2682 15.3832 22.9154 15.274C21.4706 14.8316 20.009 14.4368 18.539 14.0868L17.405 13.818L11.9478 5.23603L9.02175 4.72363L11.4746 12.4096L6.73695 11.284L4.04615 7.05323L1.64655 6.67803L2.49775 10.5588L1.75015 10.9816C1.58495 11.074 1.57935 11.312 1.74175 11.4128H1.74455Z" fill="white"/>
<path d="M26.3655 21.8091H1.63867V23.2735H26.3655V21.8091Z" fill="white"/>
</svg>
