<svg width="30" height="30" viewBox="0 0 30 30" fill="none" xmlns="http://www.w3.org/2000/svg">
<path d="M5.86632 11.372L6.85398 12.0007C7.66854 12.5185 8.5111 12.9834 9.38166 13.3903C10.2497 13.7971 11.1431 14.1458 12.057 14.4364L12.4286 14.5526L22.1779 17.646L24.5859 18.4095C25.3954 18.6657 26.0954 18.8876 26.0954 18.8876C26.5791 19.0408 27.1951 19.0276 27.6584 18.8057C27.9282 18.6763 28.1624 18.4385 28.2337 18.1374C28.2973 17.8626 28.2184 17.5668 28.0707 17.329C28.0326 17.2683 27.9918 17.2101 27.9511 17.1573C27.6762 16.8086 27.2893 16.5656 26.8998 16.3727C26.5205 16.1825 26.3016 15.8021 25.986 15.5327C25.7263 15.3108 25.4336 15.1179 25.1129 15.0149C23.7994 14.5975 22.4706 14.225 21.1342 13.8948L20.1033 13.6412L15.1421 5.54446L12.4821 5.06104L14.7119 12.3125L10.405 11.2505L7.95872 7.25892L5.77723 6.90493L6.55106 10.5663L5.87141 10.9652C5.72123 11.0524 5.71614 11.2769 5.86378 11.372H5.86632Z" fill="white"/>
<path d="M28.2559 21.1323H5.75586V22.2038H28.2559V21.1323Z" fill="white"/>
</svg>
