<svg width="26" height="22" viewBox="0 0 26 22" fill="none" xmlns="http://www.w3.org/2000/svg">
<rect width="26" height="22" rx="4" fill="#FDAF67"/>
<mask id="path-2-inside-1_2353_19" fill="white">
<path d="M19.4258 10H22.5C23.3284 10 24 10.6716 24 11.5C24 12.3284 23.3284 13 22.5 13H19.4258V15H6.42578V13H3.5C2.67157 13 2 12.3284 2 11.5C2 10.6716 2.67157 10 3.5 10H6.42578V8H19.4258V10Z"/>
</mask>
<path d="M19.4258 10H22.5C23.3284 10 24 10.6716 24 11.5C24 12.3284 23.3284 13 22.5 13H19.4258V15H6.42578V13H3.5C2.67157 13 2 12.3284 2 11.5C2 10.6716 2.67157 10 3.5 10H6.42578V8H19.4258V10Z" fill="white"/>
<path d="M19.4258 10H16.4258V13H19.4258V10ZM22.5 13V16V16V13ZM19.4258 13V10H16.4258V13H19.4258ZM19.4258 15V18H22.4258V15H19.4258ZM6.42578 15H3.42578V18H6.42578V15ZM6.42578 13H9.42578V10H6.42578V13ZM3.5 10V7H3.5L3.5 10ZM6.42578 10V13H9.42578V10H6.42578ZM6.42578 8V5H3.42578V8H6.42578ZM19.4258 8H22.4258V5H19.4258V8ZM19.4258 10V13H22.5V10V7H19.4258V10ZM22.5 10V13C21.6716 13 21 12.3284 21 11.5H24H27C27 9.01472 24.9853 7 22.5 7V10ZM24 11.5H21C21 10.6716 21.6716 10 22.5 10V13V16C24.9853 16 27 13.9853 27 11.5H24ZM22.5 13V10H19.4258V13V16H22.5V13ZM19.4258 13H16.4258V15H19.4258H22.4258V13H19.4258ZM19.4258 15V12H6.42578V15V18H19.4258V15ZM6.42578 15H9.42578V13H6.42578H3.42578V15H6.42578ZM6.42578 13V10H3.5V13V16H6.42578V13ZM3.5 13V10C4.32843 10 5 10.6716 5 11.5H2H-1C-1 13.9853 1.01472 16 3.5 16V13ZM2 11.5H5C5 12.3284 4.32843 13 3.5 13L3.5 10L3.5 7C1.01472 7 -1 9.01472 -1 11.5H2ZM3.5 10V13H6.42578V10V7H3.5V10ZM6.42578 10H9.42578V8H6.42578H3.42578V10H6.42578ZM6.42578 8V11H19.4258V8V5H6.42578V8ZM19.4258 8H16.4258V10H19.4258H22.4258V8H19.4258Z" fill="white" mask="url(#path-2-inside-1_2353_19)"/>
</svg>
