<svg width="30" height="30" viewBox="0 0 30 30" fill="none" xmlns="http://www.w3.org/2000/svg">
<path d="M28.2147 9.87596C28.1157 9.60596 27.8757 9.40496 27.6117 9.29096C27.5457 9.26096 27.4767 9.23696 27.4077 9.21596C26.9667 9.08396 26.4927 9.10796 26.0397 9.17396C25.5987 9.23996 25.1907 9.04496 24.7587 9.00596C24.4047 8.97296 24.0387 8.98196 23.6997 9.08696C22.3107 9.51296 20.9337 9.98096 19.5747 10.494L18.5277 10.887L9.56967 6.98096L6.96267 8.14496L13.0497 12.951L8.66967 14.601L4.25367 12.675L2.13867 13.665L4.90167 16.299L4.53267 17.037C4.45167 17.202 4.57467 17.394 4.75767 17.385L5.98167 17.334C6.98967 17.289 7.99467 17.184 8.98767 17.013C9.98067 16.842 10.9617 16.608 11.9277 16.314L22.6257 13.044L25.1697 12.267C26.0247 12.006 26.7657 11.778 26.7657 11.778C27.2787 11.622 27.8097 11.247 28.0887 10.785C28.2507 10.515 28.3197 10.176 28.2117 9.88196L28.2147 9.87596Z" fill="white"/>
<path d="M27.0833 19.6021H3.32031V21.0091H27.0833V19.6021Z" fill="white"/>
</svg>
