<svg width="34" height="34" viewBox="0 0 34 34" fill="none" xmlns="http://www.w3.org/2000/svg">
<path d="M31.9766 11.1926C31.8644 10.8866 31.5924 10.6588 31.2932 10.5296C31.2184 10.4956 31.1402 10.4684 31.062 10.4446C30.5622 10.295 30.025 10.3222 29.5116 10.397C29.0118 10.4718 28.5494 10.2508 28.0598 10.2066C27.6586 10.1692 27.2438 10.1794 26.8596 10.2984C25.2854 10.7812 23.7248 11.3116 22.1846 11.893L20.998 12.3384L10.8456 7.91162L7.89103 9.23082L14.7896 14.6776L9.82563 16.5476L4.82083 14.3648L2.42383 15.4868L5.55523 18.472L5.13703 19.3084C5.04523 19.4954 5.18463 19.713 5.39203 19.7028L6.77923 19.645C7.92163 19.594 9.06063 19.475 10.186 19.2812C11.3114 19.0874 12.4232 18.8222 13.518 18.489L25.6424 14.783L28.5256 13.9024C29.4946 13.6066 30.3344 13.3482 30.3344 13.3482C30.9158 13.1714 31.5176 12.7464 31.8338 12.2228C32.0174 11.9168 32.0956 11.5326 31.9732 11.1994L31.9766 11.1926Z" fill="white"/>
<path d="M30.6951 22.2158H3.76367V23.8104H30.6951V22.2158Z" fill="white"/>
</svg>
