<svg width="21" height="21" viewBox="0 0 21 21" fill="none" xmlns="http://www.w3.org/2000/svg">
<g clip-path="url(#clip0_410_1474)">
<path d="M9.66217 14.7227C9.60757 14.5778 9.55927 14.4455 9.51727 14.3237C9.48367 14.4371 9.44797 14.5484 9.40597 14.6597L9.04688 15.6215H10.0003L9.66217 14.7227Z" fill="#666666"/>
<path d="M18.191 1.28076H3.41963C2.85263 1.28076 2.39062 1.74276 2.39062 2.30976V11.1802H19.22V2.30976C19.22 1.74276 18.758 1.28076 18.191 1.28076ZM11.2463 10.1596C11.2463 10.2562 11.1665 10.336 11.0699 10.336H10.5407C10.4441 10.336 10.3643 10.2562 10.3643 10.1596V8.94366C10.3643 8.84706 10.4441 8.76726 10.5407 8.76726H11.0699C11.1665 8.76726 11.2463 8.84706 11.2463 8.94366V10.1596ZM13.0334 4.95156L12.6596 5.32536C12.5903 5.39466 12.479 5.39466 12.4097 5.32536L11.2484 4.16406V7.84536C11.2484 7.94196 11.1686 8.02176 11.072 8.02176H10.5428C10.4462 8.02176 10.3664 7.94196 10.3664 7.84536V4.16406L9.20513 5.32536C9.13583 5.39466 9.02452 5.39466 8.95522 5.32536L8.58143 4.95156C8.51213 4.88226 8.51213 4.77096 8.58143 4.70166L10.2467 3.03636C10.5554 2.72766 11.0594 2.72766 11.3702 3.03636L13.0355 4.70166C13.1048 4.77096 13.1048 4.88226 13.0355 4.95156H13.0334Z" fill="#666666"/>
<path d="M18.338 12.062H2.39062V18.6896C2.39062 19.2566 2.85263 19.7186 3.41963 19.7186H18.1889C18.7559 19.7186 19.2179 19.2566 19.2179 18.6896V12.062H18.3359H18.338ZM14.5076 13.3703H17.5022V14.057H15.2468V14.9915H17.3594V15.674H15.2468V16.7387H17.5904V17.4254H14.5055V13.3724L14.5076 13.3703ZM10.9523 13.3703H14.2136V14.057H12.9515V17.4233H12.2102V14.057H10.9523V13.3703ZM9.16102 13.3703H9.86452L11.5235 17.4233H10.6919L10.2467 16.2662H8.81452L8.39453 17.4233H7.60492L9.16102 13.3703ZM4.04753 14.3237C4.21343 13.9793 4.45493 13.721 4.76783 13.553C5.07442 13.3892 5.43353 13.3052 5.83043 13.3052C6.12023 13.3052 6.38693 13.3535 6.62213 13.448C6.86363 13.5446 7.05682 13.6832 7.19542 13.8575C7.33192 14.0297 7.43692 14.2544 7.50623 14.5253L7.53562 14.6366L6.85733 14.8235L6.82373 14.7122C6.77122 14.5316 6.70612 14.3909 6.63052 14.2922C6.55912 14.1977 6.45202 14.12 6.31342 14.0612C6.17062 14.0003 6.00892 13.9709 5.83252 13.9709C5.61832 13.9709 5.43142 14.0024 5.27812 14.0675C5.12692 14.1305 5.00302 14.2145 4.91272 14.3153C4.81822 14.4203 4.74472 14.5358 4.69222 14.6597C4.60192 14.8802 4.55573 15.1238 4.55573 15.3821C4.55573 15.7013 4.61032 15.9722 4.71952 16.1822C4.82662 16.3901 4.97572 16.5392 5.17942 16.64C5.38522 16.7429 5.60783 16.7954 5.84092 16.7954C6.04253 16.7954 6.24412 16.7555 6.43733 16.6778C6.60742 16.6085 6.74183 16.5371 6.83843 16.4615V15.9239H5.71702V15.2414H7.56922V16.829L7.52513 16.8647C7.26893 17.0684 7.00012 17.2259 6.72502 17.3288C6.44992 17.4338 6.16222 17.4863 5.87032 17.4863C5.47762 17.4863 5.11642 17.4002 4.79302 17.2322C4.46542 17.06 4.21553 16.8101 4.04963 16.4846C3.88583 16.1654 3.80183 15.8042 3.80183 15.4136C3.80183 15.023 3.88373 14.6597 4.04753 14.3216V14.3237Z" fill="#666666"/>
</g>
<defs>
<clipPath id="clip0_410_1474">
<rect width="21" height="21" fill="white"/>
</clipPath>
</defs>
</svg>
