<svg width="39" height="25" viewBox="0 0 39 25" fill="none" xmlns="http://www.w3.org/2000/svg">
<path fill-rule="evenodd" clip-rule="evenodd" d="M20.6888 9.1617L20.1857 2.04247C20.1662 1.93093 20.1155 1.85017 20.0024 1.82324C19.8932 1.85017 19.8386 1.93093 19.8191 2.04247L19.316 9.1617C19.5422 9.1194 19.7723 9.10017 20.0024 9.10017C20.2325 9.10017 20.4626 9.1194 20.6888 9.1617ZM20.0024 18.204C22.1435 18.204 23.8829 16.2386 23.8829 13.8155C23.8829 11.3925 22.1474 9.42709 20.0024 9.42709C17.8574 9.42709 16.1219 11.3925 16.1219 13.8155C16.1219 16.2386 17.8574 18.204 20.0024 18.204ZM20.0024 12.4809C19.2302 12.3925 18.0602 13.1386 17.6195 13.0963C17.2529 13.0617 17.2022 12.6848 17.2646 12.5386L17.5688 11.9617C17.8847 11.4386 19.5773 11.3694 20.0024 11.3848C20.4275 11.3694 22.1201 11.4348 22.436 11.9617L22.7402 12.5386C22.8026 12.6848 22.7519 13.0617 22.3853 13.0963C21.9446 13.1425 20.7746 12.3925 20.0024 12.4809ZM32.0573 15.8963C31.1876 15.8963 30.4856 16.6232 30.4856 17.5194C30.4856 18.4155 31.1876 19.1425 32.0573 19.1425C32.927 19.1425 33.629 18.4155 33.629 17.5194C33.629 16.6232 32.927 15.8963 32.0573 15.8963ZM26.1488 19.3694C26.3048 19.3694 26.4296 19.4925 26.4296 19.6463V19.8155H26.7689V19.5886H26.687V19.2848H26.5973V18.1117L25.1309 16.9002L25.0412 16.9117V14.7425L36.4292 14.5002C37.4081 14.4309 37.3847 15.2309 36.7022 15.3617L33.3365 15.8117C32.9855 15.5309 32.5409 15.3617 32.0612 15.3617C31.3865 15.3617 30.7898 15.6886 30.4076 16.2002L27.2018 16.6271V19.2886H27.1121V19.5925H27.0302V19.8194H27.3149V19.6502C27.3149 19.4963 27.4397 19.3732 27.5957 19.3732H27.623C27.779 19.3732 27.9038 19.4963 27.9038 19.6502V20.7194C27.9038 20.8732 27.779 20.9963 27.623 20.9963H27.5957C27.4436 20.9963 27.3149 20.8732 27.3149 20.7194V20.6271H26.4335V20.7194C26.4335 20.8732 26.3087 20.9963 26.1527 20.9963H26.1254C25.9694 20.9963 25.8446 20.8732 25.8446 20.7194V19.6502C25.8446 19.4963 25.9694 19.3732 26.1254 19.3732H26.1527L26.1488 19.3694ZM21.5741 18.1848C23.0873 17.504 23.9999 15.9848 24.1754 14.3886L24.1949 14.3694C24.2768 14.6194 24.4562 14.6886 24.698 14.6386V17.1809H24.2066C23.6177 17.8386 22.6895 18.1156 21.5741 18.1848ZM18.4268 18.1848C17.3153 18.1156 16.3871 17.8348 15.7943 17.1809H15.3029V14.6386C15.5486 14.6886 15.728 14.6232 15.806 14.3694L15.8216 14.3848C16.001 15.9809 16.9097 17.5002 18.4229 18.1809L18.4268 18.1848ZM7.94355 15.8963C8.81325 15.8963 9.51525 16.6232 9.51525 17.5194C9.51525 18.4155 8.81325 19.1425 7.94355 19.1425C7.07385 19.1425 6.37185 18.4155 6.37185 17.5194C6.37185 16.6232 7.07385 15.8963 7.94355 15.8963ZM13.8521 19.3694C13.6961 19.3694 13.5713 19.4925 13.5713 19.6463V19.8155H13.232V19.5886H13.3139V19.2848H13.4036V18.1079L14.8661 16.8963L14.9597 16.9079V14.7386L3.57165 14.4963C2.59275 14.4271 2.61615 15.2271 3.29865 15.3579L6.96465 15.8463C7.24545 15.6732 7.57695 15.5732 7.93965 15.5732C8.48175 15.5732 8.95755 15.8002 9.29685 16.1579L12.7991 16.6232V19.2848H12.8888V19.5886H12.9707V19.8155H12.686V20.6271H13.5674V20.7194C13.5674 20.8732 13.6922 20.9963 13.8482 20.9963H13.8755C14.0276 20.9963 14.1563 20.8732 14.1563 20.7194V19.6502C14.1563 19.4963 14.0315 19.3732 13.8755 19.3732H13.8482L13.8521 19.3694ZM12.3857 19.3694H12.413C12.569 19.3694 12.6938 19.4925 12.6938 19.6463V20.7156C12.6938 20.8694 12.569 20.9925 12.413 20.9925H12.3857C12.2297 20.9925 12.1049 20.8694 12.1049 20.7156V19.6463C12.1049 19.4925 12.2297 19.3694 12.3857 19.3694ZM13.4075 16.704L14.4059 16.8386L13.4075 17.7386V16.704ZM26.5973 16.704L25.5911 16.8386L26.5973 17.7463V16.704ZM15.962 12.5002L7.53015 11.4655C7.25715 11.4348 7.22595 11.7732 7.44825 11.8309L15.7982 13.5963C15.8138 13.2271 15.8684 12.8579 15.962 12.5002ZM24.0389 12.5002L32.4707 11.4655C32.7437 11.4348 32.7749 11.7732 32.5526 11.8309L24.2027 13.5963C24.1871 13.2271 24.1325 12.8579 24.0389 12.5002Z" fill="#666666"/>
</svg>
