<svg width="21" height="16" viewBox="0 0 21 16" fill="none" xmlns="http://www.w3.org/2000/svg">
<path d="M2.03872 13.4657C2.03872 13.4657 2.58942 9.71987 3.57618 8.77657C4.56293 7.83326 6.18259 7.54264 6.98958 7.55624L15.1429 7.69363C15.1429 7.69363 16.986 8.44308 17.5105 10.731C18.035 13.0189 18.3454 13.7425 18.3454 13.7425C18.3454 13.7425 17.5998 14.8488 17.7518 15.3303C17.9039 15.8118 20.647 16.7375 19.5666 13.9221C19.5666 13.9221 18.1077 8.94298 17.5497 8.53309L17.2849 5.25247L16.7198 5.24295L15.0887 6.1754L13.6087 3.19428C13.6087 3.19428 9.46674 4.56335 6.74818 3.07868L5.72585 6.01763L4.27526 5.83423L3.24204 4.9374L3.02309 8.20987C3.02309 8.20987 1.17744 11.9339 0.824316 13.6062C0.824316 13.6062 0.143744 15.5105 1.11265 15.5681C2.08156 15.6257 3.28962 15.7245 2.03868 13.4677L2.03872 13.4657Z" fill="white"/>
<path d="M15.8679 7.0693L19.4786 1.49836" stroke="white" stroke-width="3" stroke-linecap="round"/>
<path d="M5.04933 7.26037L1.50759 1.64775" stroke="white" stroke-width="3" stroke-linecap="round"/>
</svg>
