<svg width="412" height="331" viewBox="0 0 412 331" fill="none" xmlns="http://www.w3.org/2000/svg">
<path d="M383.022 8.21973C386.919 0.816115 395.982 -2.12853 403.266 1.6416C410.549 5.41185 413.295 14.4694 409.398 21.873L357.825 119.873L360.568 157.587C372.427 167.255 403.425 284.65 403.454 284.76C426.426 351.2 368.099 329.356 364.866 317.993C361.64 306.651 377.429 280.62 377.487 280.523C377.487 280.523 370.887 263.446 359.735 209.455C348.585 155.472 309.407 137.783 309.394 137.777L136.029 134.535C118.87 134.214 84.4323 141.073 63.4512 163.333C42.47 185.594 30.7598 273.99 30.7598 273.99L30.7588 274.039C57.357 327.296 31.6711 324.964 11.0693 323.604C-9.53247 322.245 4.93848 277.307 4.93848 277.307C12.4383 237.887 51.5985 150.166 51.6904 149.96L54.5586 102.37L19.584 24.3428C16.1202 16.6151 19.3126 7.69208 26.7139 4.41211C34.1154 1.13228 42.9238 4.73799 46.3877 12.4658L83.1943 94.582L109.159 98.2256L130.896 28.8701C188.632 63.865 276.562 31.6751 276.771 31.5986L308.239 101.949L342.921 79.9443L345.254 79.9873L383.022 8.21973Z" fill="#EEEEEE"/>
</svg>
