<svg width="41" height="32" viewBox="0 0 41 32" fill="none" xmlns="http://www.w3.org/2000/svg">
<path d="M3.82829 26.3091C3.82829 26.3091 4.93812 18.5445 6.92672 16.5892C8.91531 14.6338 12.1794 14.0314 13.8057 14.0596L30.2371 14.3444C30.2371 14.3444 33.9515 15.8979 35.0085 20.6404C36.0655 25.383 36.691 26.883 36.691 26.883C36.691 26.883 35.1884 29.1762 35.4948 30.1743C35.8012 31.1724 41.3294 33.0911 39.1521 27.2551C39.1521 27.2551 36.2119 16.9341 35.0874 16.0845L34.5537 9.28418L33.4149 9.26444L30.1277 11.1973L27.1451 5.01781C27.1451 5.01781 18.7979 7.85572 13.3192 4.77818L11.2589 10.8703L8.33556 10.4901L6.25334 8.63107L5.81209 15.4145C5.81209 15.4145 2.09256 23.1338 1.38091 26.6005C1.38091 26.6005 0.009362 30.5478 1.962 30.6672C3.91463 30.7866 6.34921 30.9914 3.82822 26.3134L3.82829 26.3091Z" fill="#7ED4C5"/>
<path d="M31.6979 13.0482L38.9745 1.50035" stroke="#7ED4C5" stroke-width="3" stroke-linecap="round"/>
<path d="M9.89641 13.4449L2.75876 1.81069" stroke="#7ED4C5" stroke-width="3" stroke-linecap="round"/>
</svg>
