<svg width="30" height="30" viewBox="0 0 30 30" fill="none" xmlns="http://www.w3.org/2000/svg">
<g clip-path="url(#clip0_519_759)">
<path d="M30.0255 16.262H29.0116C28.6838 16.262 28.3663 16.4069 28.1205 16.6522C27.8338 16.9421 27.1783 17.3991 25.683 18.0569C24.4642 18.592 22.5592 18.3022 20.5621 17.8228L22.6616 14.7793H20.5825L17.1106 16.8975C15.6665 16.5073 14.3555 16.2174 13.4337 16.2732C11.8053 16.3735 10.8938 17.2431 10.4021 17.9677C10.0846 18.4359 10.2997 19.1048 10.8323 19.2609C13.0138 19.9075 15.1544 20.3088 17.172 20.5652C18.6059 22.0814 20.941 24.456 21.7911 24.7793H23.5527L20.8898 20.8774C24.4539 21.0335 27.1988 20.7436 28.3049 20.5987C28.6326 20.5541 28.9091 20.32 29.032 19.9967L30.2406 16.5965C30.2918 16.4404 30.1894 16.2732 30.0357 16.2732L30.0255 16.262Z" fill="white"/>
<path d="M1.49877 6.27414H2.61175C2.97913 6.27414 3.32491 6.41847 3.58424 6.65559C3.89761 6.94425 4.62158 7.40816 6.26402 8.05765C7.60391 8.58342 9.70019 8.30507 11.8937 7.82053L9.58133 4.7793H11.8721L15.6973 6.90301C17.2857 6.52156 18.7336 6.2226 19.7493 6.28445C21.5431 6.38754 22.548 7.25352 23.0883 7.97517C23.4448 8.4494 23.1963 9.1195 22.6236 9.27414C20.2248 9.91332 17.8584 10.3257 15.6432 10.5731C14.0656 12.0886 11.4939 14.47 10.5646 14.7793H8.63044L11.5695 10.8824C7.64713 11.037 4.62158 10.7484 3.40055 10.604C3.04397 10.5628 2.73061 10.3257 2.60094 9.99579L1.27186 6.59373C1.20702 6.43909 1.32588 6.27414 1.49877 6.27414Z" fill="white"/>
</g>
<defs>
<clipPath id="clip0_519_759">
<rect width="30" height="30" fill="white"/>
</clipPath>
</defs>
</svg>
