<svg width="47" height="30" viewBox="0 0 47 30" fill="none" xmlns="http://www.w3.org/2000/svg">
<g clip-path="url(#clip0_358_1635)">
<path d="M11.6685 5.86928L11.5557 6.29569L15.1675 16.7188H15.6943C15.6943 16.7188 20.7738 14.3355 31.7783 16.8159L35.3901 5.8893L34.976 5.77318L36.6507 0.716296C36.6507 0.716296 39.0777 -1.08545 39.4917 1.93648L37.9677 6.70208H37.3845L33.8291 17.5316C33.8291 17.5316 39.1525 20.089 40.902 21.7747C42.6516 23.4603 46.9593 28.1678 46.9593 28.1678C46.9593 28.1678 47.4297 30.415 45.1155 29.9305L40.7883 25.1259L37.2144 29.407C37.2144 29.407 32.0786 24.9317 26.6988 24.196C21.319 23.4603 15.4494 24.4673 9.84311 29.2719L6.08066 25.1259L2.12965 29.7754C2.12965 29.7754 -0.303156 30.5501 0.0292532 28.2059C0.0292532 28.2059 6.42571 20.1461 13.0477 17.5896L9.4485 6.74012H9.07235L7.43557 2.01255C7.43557 2.01255 6.94668 0.79237 8.41336 0.152751C9.88005 -0.486867 10.3699 1.06363 10.3699 1.06363L12.0096 5.83625" fill="#2F88DD"/>
</g>
<defs>
<clipPath id="clip0_358_1635">
<rect width="47" height="30" fill="white"/>
</clipPath>
</defs>
</svg>
