<svg width="19" height="13" viewBox="0 0 19 13" fill="none" xmlns="http://www.w3.org/2000/svg">
<g clip-path="url(#clip0_358_811)">
<path d="M4.70981 2.53171L4.66431 2.71565L6.12192 7.21188H6.33452C6.33452 7.21188 8.38443 6.18379 12.8255 7.25377L14.2831 2.54035L14.116 2.49026L14.7919 0.308856C14.7919 0.308856 15.7713 -0.468365 15.9384 0.835208L15.3234 2.89096H15.088L13.6532 7.56249C13.6532 7.56249 15.8015 8.66572 16.5076 9.39285C17.2136 10.12 18.9521 12.1507 18.9521 12.1507C18.9521 12.1507 19.1419 13.1201 18.208 12.9111L16.4617 10.8385L15.0194 12.6853C15.0194 12.6853 12.9467 10.7547 10.7756 10.4374C8.60448 10.12 6.23567 10.5544 3.97316 12.627L2.45476 10.8385L0.860251 12.8441C0.860251 12.8441 -0.121556 13.1784 0.0125939 12.1671C0.0125939 12.1671 2.594 8.69033 5.26642 7.58754L3.81391 2.90737H3.66211L3.00155 0.868024C3.00155 0.868024 2.80425 0.341672 3.39616 0.0657587C3.98807 -0.210155 4.18576 0.458687 4.18576 0.458687L4.84749 2.51746" fill="white"/>
</g>
<defs>
<clipPath id="clip0_358_811">
<rect width="18.9677" height="12.9412" fill="white"/>
</clipPath>
</defs>
</svg>
