<svg width="475" height="297" viewBox="0 0 475 297" fill="none" xmlns="http://www.w3.org/2000/svg">
<path d="M117.944 58.1234L116.805 62.3448L153.307 165.53H158.631C158.631 165.53 209.965 141.936 321.179 166.491L357.681 58.3216L353.497 57.1721L370.421 7.11045C370.421 7.11045 394.949 -10.7262 399.134 19.1899L383.731 66.3679H377.838L341.906 173.576C341.906 173.576 395.706 198.895 413.387 215.582C431.068 232.269 474.603 278.872 474.603 278.872C474.603 278.872 479.357 301.119 455.969 296.323L412.237 248.758L376.119 291.14C376.119 291.14 324.215 246.836 269.845 239.552C215.476 232.269 156.155 242.238 99.4969 289.802L61.4726 248.758L21.5426 294.787C21.5426 294.787 -3.04404 302.457 0.315379 279.249C0.315379 279.249 64.9597 199.459 131.883 174.151L95.5088 66.7445H91.7073L75.1656 19.943C75.1656 19.943 70.2247 7.86356 85.0474 1.53153C99.8701 -4.8005 104.821 10.549 104.821 10.549L121.392 57.7964" fill="#EEEEEE"/>
</svg>
