<svg width="26" height="22" viewBox="0 0 26 22" fill="none" xmlns="http://www.w3.org/2000/svg">
<rect width="26" height="22" rx="4" fill="#00A4AF"/>
<g clip-path="url(#clip0_460_10153)">
<path d="M8.42075 7.06101L8.37525 7.24495L9.83286 11.7412H10.0455C10.0455 11.7412 12.0954 10.7131 16.5364 11.7831L17.9941 7.06964L17.827 7.01956L18.5028 4.83815C18.5028 4.83815 19.4823 4.06093 19.6494 5.36451L19.0343 7.42026H18.799L17.3641 12.0918C17.3641 12.0918 19.5125 13.195 20.2185 13.9221C20.9246 14.6493 22.663 16.68 22.663 16.68C22.663 16.68 22.8529 17.6494 21.9189 17.4404L20.1726 15.3678L18.7303 17.2145C18.7303 17.2145 16.6577 15.284 14.4865 14.9666C12.3154 14.6493 9.94661 15.0837 7.6841 17.1563L6.16569 15.3678L4.57119 17.3734C4.57119 17.3734 3.58938 17.7077 3.72353 16.6964C3.72353 16.6964 6.30494 13.2196 8.97736 12.1168L7.52485 7.43666H7.37304L6.71249 5.39732C6.71249 5.39732 6.51519 4.87097 7.1071 4.59506C7.69901 4.31914 7.8967 4.98798 7.8967 4.98798L8.55843 7.04676" fill="white"/>
</g>
<rect x="1" y="1" width="24" height="20" rx="4" fill="#00A4AF"/>
<path d="M5.10317 16.515C5.10317 16.515 5.65388 12.7692 6.64063 11.8259C7.62738 10.8826 9.24704 10.592 10.054 10.6056L18.2074 10.7429C18.2074 10.7429 20.0505 11.4924 20.575 13.7803C21.0995 16.0682 21.4099 16.7918 21.4099 16.7918C21.4099 16.7918 20.6643 17.8982 20.8163 18.3797C20.9683 18.8612 23.7114 19.7868 22.6311 16.9714C22.6311 16.9714 21.1721 11.9923 20.6141 11.5824L20.3493 8.30179L19.7842 8.29227L18.1531 9.22472L16.6731 6.2436C16.6731 6.2436 12.5312 7.61267 9.81263 6.128L8.7903 9.06695L7.33971 8.88355L6.3065 7.98672L6.08754 11.2592C6.08754 11.2592 4.2419 14.9832 3.88877 16.6556C3.88877 16.6556 3.2082 18.5598 4.17711 18.6174C5.14602 18.6751 6.35407 18.7739 5.10314 16.5171L5.10317 16.515Z" fill="white"/>
<path d="M18.9323 10.1176L22.543 4.5467" stroke="white" stroke-width="3" stroke-linecap="round"/>
<path d="M8.11378 10.3092L4.57204 4.69658" stroke="white" stroke-width="3" stroke-linecap="round"/>
<defs>
<clipPath id="clip0_460_10153">
<rect width="18.9677" height="12.9412" fill="white" transform="translate(3.71094 4.5293)"/>
</clipPath>
</defs>
</svg>
