<svg width="26" height="22" viewBox="0 0 26 22" fill="none" xmlns="http://www.w3.org/2000/svg">
<rect width="26" height="22" rx="4" fill="#3E87E4"/>
<g clip-path="url(#clip0_460_9643)">
<path d="M7.94677 6.67733L7.89803 6.87997L9.4592 11.8332H9.6869C9.6869 11.8332 11.8824 10.7006 16.639 11.8794L18.2002 6.68685L18.0212 6.63167L18.7451 4.22853C18.7451 4.22853 19.7941 3.37231 19.9731 4.80839L19.3144 7.0731H19.0623L17.5255 12.2195C17.5255 12.2195 19.8265 13.4348 20.5827 14.2359C21.3389 15.0369 23.2009 17.274 23.2009 17.274C23.2009 17.274 23.4042 18.3419 22.4039 18.1117L20.5336 15.8285L18.9888 17.8629C18.9888 17.8629 16.7689 15.7362 14.4435 15.3866C12.1181 15.0369 9.58103 15.5155 7.15778 17.7987L5.5315 15.8285L3.82371 18.038C3.82371 18.038 2.77215 18.4062 2.91583 17.2921C2.91583 17.2921 5.68064 13.462 8.54291 12.2471L6.98721 7.09117H6.82463L6.11714 4.84454C6.11714 4.84454 5.90582 4.26468 6.53978 3.96073C7.17375 3.65677 7.38549 4.39359 7.38549 4.39359L8.09423 6.66164" fill="white"/>
</g>
<defs>
<clipPath id="clip0_460_9643">
<rect width="20.3153" height="14.2566" fill="white" transform="translate(2.90234 3.88818)"/>
</clipPath>
</defs>
</svg>
