<svg width="102" height="40" viewBox="0 0 102 40" fill="none" xmlns="http://www.w3.org/2000/svg">
<path d="M52.2249 40C63.2793 40 70.5552 30.9238 76.1137 22.9467C80.7977 16.3517 88.8622 4.85897 101.579 2.74145C102.235 2.6283 102.079 2.11105 101.415 2.06256C95.6937 1.74505 90.0154 3.25136 85.1461 6.37841C76.5586 11.656 70.1883 22.5426 63.17 27.9496C59.2666 30.9157 52.9431 33.898 46.9943 30.5682C46.9943 30.5682 41.3578 27.8445 41.5998 20.2635C41.5998 20.2635 41.5998 12.4077 48.9616 10.8559C48.9616 10.8559 54.1688 9.90221 56.6045 14.0887C56.8465 14.5171 56.9089 15.1152 56.2141 14.5656C55.0888 13.7186 53.6865 13.3643 52.3107 13.5796C50.0958 13.8235 48.2362 15.4145 47.5876 17.6206C46.9634 19.8797 47.5597 22.3118 49.149 23.9893C49.149 23.9893 50.765 26.1149 54.2859 25.9371C61.4525 26.0018 68.2132 16.1658 70.2664 14.0807C74.6538 9.53851 82.1795 1.79585 95.4979 0.882568C96.1771 0.842157 96.0991 0.365313 95.4199 0.260245C89.3071 -0.644952 75.1456 0.114767 62.241 14.1534C60.664 8.55249 55.4335 4.85089 49.0787 4.97212C43.4422 5.09335 33.8711 9.59509 33.8711 21.5889C33.8711 34.3264 44.5039 40 52.2249 40Z" fill="#F1F1F1"/>
<path d="M36.4245 34.7546C33.3395 31.1096 31.6413 26.427 31.6467 21.5807C31.6467 21.3544 31.6467 21.1281 31.6467 20.9018C27.2125 15.6404 22.4269 9.86168 16.8138 6.40253C11.9734 3.29723 6.33307 1.79443 0.645961 2.09476C-0.134718 2.14326 -0.236207 2.66051 0.497632 2.78983C13.1524 4.91542 21.2091 16.3678 25.8697 22.9466C28.7895 27.1412 32.0137 31.6268 36.1591 34.9486C36.6353 35.3365 36.7992 35.2072 36.4245 34.7546Z" fill="#F1F1F1"/>
<path d="M6.62645 0.260401C5.91603 0.365468 5.84577 0.842313 6.57961 0.890806C19.8512 1.75559 27.8765 10.0802 31.7565 14.0808C31.9907 14.3233 32.303 14.687 32.6855 15.1153C33.3048 13.2408 34.1916 11.4728 35.3164 9.87003C23.7468 0.00177243 12.0209 -0.539729 6.62645 0.260401Z" fill="#F1F1F1"/>
</svg>
