<svg width="18" height="22" viewBox="0 0 18 22" fill="none" xmlns="http://www.w3.org/2000/svg">
<g clip-path="url(#clip0_410_38)">
<path fill-rule="evenodd" clip-rule="evenodd" d="M0.961725 20.2842L1.88942 20.6938L4.57211 14.8756L3.64096 14.4661C3.44711 14.3814 3.21519 14.4661 3.12865 14.6556L0.764418 19.7799C0.677879 19.9694 0.764418 20.1962 0.958263 20.2842H0.961725ZM14.351 1.20514C14.351 1.25591 14.344 1.29652 14.3302 1.33375C14.4617 1.63498 14.3925 1.80083 14.4583 2.05806C14.6348 2.2916 14.981 2.36268 15.0294 2.57929C15.0467 2.7756 14.7975 2.75868 14.6417 2.91098C14.6556 2.9956 14.6833 3.08021 14.7421 3.16145C14.7421 3.20545 14.7075 3.23929 14.6348 3.26637C14.7075 3.27314 14.7663 3.31375 14.7733 3.35437C14.7802 3.40514 14.659 3.44914 14.666 3.53375C14.6729 3.63191 14.6902 3.64206 14.7386 3.7436C14.7871 3.85191 14.7317 3.93991 14.6071 3.96698C14.2748 4.03806 13.9944 4.05498 13.7313 4.04483C13.5825 4.11929 13.451 4.28852 13.3644 4.46791C13.399 4.4916 13.4267 4.51191 13.4475 4.53221C13.3367 4.83683 13.4475 4.89775 13.4475 5.16514C14.3717 6.51221 14.3717 7.10791 14.2921 8.75621C14.3163 8.86114 14.344 8.95591 14.3648 9.03714C14.794 9.42975 15.3721 10.1744 16.0125 10.4925L17.6221 10.919C17.6394 11.2981 17.4179 11.6839 16.8571 11.8125L15.6629 11.2067L14.2263 10.2928C14.216 10.7328 14.209 11.2236 14.2125 11.7854L10.7475 11.8294C10.7544 11.491 10.7544 11.0341 10.9206 10.4756C11.1733 9.62606 11.1802 8.69529 11.1456 7.81191L11.2979 7.72729C11.7271 7.48698 12.1563 7.22637 12.5683 6.95221C12.8763 6.74575 13.1186 6.45129 13.1879 6.08575C13.2433 5.78114 13.1636 5.46637 12.949 5.23283C12.6167 4.87068 12.1113 4.85037 11.6786 5.05006C11.4883 5.13806 11.2979 5.22944 11.1144 5.3276C11.1663 4.92821 11.284 4.59652 11.5056 4.3596C11.6475 4.20052 11.6613 4.0516 11.741 3.83837C11.7963 3.84514 11.8552 3.85529 11.914 3.86883C11.9833 3.70298 12.0213 3.50668 12.004 3.30698C11.5956 2.57929 11.2321 1.88206 11.651 1.21868C12.3779 0.274369 13.7625 0.311599 14.351 1.21529V1.20514ZM11.7894 5.27006C11.2183 5.53068 10.6713 5.83868 10.1625 6.21775C10.1763 6.23129 10.1936 6.24821 10.211 6.26175C9.5498 6.67468 8.90942 7.15529 8.51134 7.63591L7.65634 9.73098L7.2825 10.9934C7.52134 11.5079 7.95057 11.6433 8.32788 11.5519L8.44211 9.92729C8.63596 9.25037 9.26942 8.54975 9.58096 8.06237C9.91326 7.89314 10.5156 7.65283 11.1006 7.39898C11.1248 7.43621 11.1525 7.47006 11.1733 7.50052C11.4813 7.32791 11.8967 7.08083 12.2671 6.84052C12.3329 6.80329 12.3952 6.76268 12.4506 6.72545C12.7171 6.54606 12.8625 6.32606 12.9144 6.11283C13.0875 5.50698 12.5406 4.92821 11.7894 5.27006ZM10.3044 6.35314C9.65019 6.75929 9.02019 7.22975 8.62557 7.70021L7.77749 9.7716L7.41749 10.9799C7.57673 11.2879 7.85019 11.491 8.20326 11.4436L8.31057 9.90021V9.88667C8.52173 9.16575 9.07211 8.61406 9.46673 7.98791L9.48403 7.95744L9.51519 7.94052C9.98942 7.70021 10.5225 7.49714 11.014 7.28729H11.021C10.8271 7.00637 10.5848 6.64421 10.2975 6.34637L10.3044 6.35314ZM12.0179 3.88575C12.4748 4.00083 12.994 4.23437 13.2779 4.40698C13.3783 4.21068 13.5271 4.03129 13.6863 3.95006L13.7106 3.93652H13.7383C14.0256 3.95006 14.306 3.92298 14.5898 3.86206C14.6417 3.85191 14.6694 3.8316 14.6452 3.78083C14.6002 3.68268 14.5725 3.64883 14.5656 3.53714C14.5586 3.44575 14.6002 3.41191 14.6452 3.36791C14.6383 3.36791 14.6348 3.36791 14.6313 3.36791L14.3613 3.29345L14.6036 3.1716C14.6036 3.1716 14.614 3.16821 14.621 3.16483C14.5794 3.09375 14.5517 3.01252 14.5413 2.92791L14.5344 2.87714L14.5725 2.83991C14.6417 2.77221 14.7179 2.73498 14.8044 2.69775C14.8356 2.68421 14.9048 2.65375 14.9221 2.62668C14.929 2.61652 14.929 2.60637 14.929 2.59283C14.929 2.58606 14.9256 2.57929 14.9221 2.57252C14.8875 2.50145 14.7767 2.43375 14.711 2.39314C14.5863 2.31529 14.4686 2.23745 14.3786 2.11898L14.3683 2.10206L14.3613 2.08175C14.3336 1.98021 14.3267 1.88206 14.3198 1.77714C14.3129 1.63837 14.2956 1.53683 14.261 1.43529C14.0221 1.65529 13.3748 1.52329 13.2225 2.54545L13.1256 2.56237C13.0356 2.29498 12.5302 2.34237 12.5821 2.67068C12.596 2.82637 12.5336 3.10391 12.4367 3.23929C12.3571 3.34421 12.2221 3.38145 12.1113 3.35437C12.1183 3.52698 12.0871 3.6996 12.0248 3.86206L12.0144 3.88575H12.0179ZM14.2783 9.12175C14.2644 9.42637 14.2506 9.76144 14.2367 10.1405L15.7356 11.095L16.8779 11.6771C17.2206 11.5858 17.4733 11.3624 17.4975 11.0138L15.971 10.6076L15.9571 10.6008C15.2752 10.259 14.8286 9.62606 14.2783 9.12514H14.2748L14.2783 9.12175ZM13.9979 12.0325L13.9702 12.2491C13.6413 13.7485 13.1533 15.451 12.2602 16.6322C11.1733 18.0673 10.0448 18.6461 9.5048 19.8104L9.09288 19.5734C9.09288 19.9221 9.24519 20.3011 9.4598 20.5414C9.67788 20.7818 10.0517 20.7885 10.256 20.9916C10.3113 21.0491 10.3321 21.1371 10.3286 21.2251H9.12057L7.13019 19.8205C7.2375 19.499 7.49711 19.1842 7.82942 18.8424L7.34826 18.5648C8.02326 17.387 9.33519 16.0704 10.0933 15.5694C10.8306 15.0821 11.0383 14.2224 11.2356 13.3525C11.014 12.8685 10.8548 12.3947 10.7994 12.0325H13.9944H13.9979ZM14.8494 21.3707V21.5331C14.8494 21.567 14.8217 21.5974 14.7871 21.5974H11.2598C11.2217 21.5974 11.194 21.567 11.194 21.5331C11.194 21.4756 11.1871 21.4181 11.1836 21.3707H14.8494ZM11.194 21.2522H14.8286C14.884 21.1338 14.8113 20.9476 14.6348 20.8528C14.3233 20.6836 13.9736 20.5618 13.7106 20.4805L13.2848 20.2267H13.946C14.1225 17.9353 14.2194 15.4611 14.1086 12.8178C13.7833 14.1885 13.3021 15.6879 12.4679 16.7879C12.1217 17.2448 11.741 17.6476 11.336 18.047C11.246 18.7781 11.1283 19.5024 11.0071 20.2267H11.2321C11.149 20.5482 11.1283 20.8867 11.1975 21.2488L11.194 21.2522ZM10.3425 21.3538H9.10326L9.06519 21.3402L7.04019 19.9119C7.00903 19.9559 6.97442 20.0405 6.92249 20.1218C6.90519 20.1522 6.91211 20.1928 6.94326 20.2098L8.5598 21.2861L9.01673 21.5974H10.339L10.346 21.3538H10.3425ZM3.08711 21.5974C2.84134 21.6888 2.56788 21.567 2.47788 21.3267V21.3165L2.47096 21.3064V21.2962L2.46403 21.2861V21.2759L2.45711 21.2658V21.2556L2.45365 21.2454V21.2353V21.2251V21.215V21.2048V21.1947V21.1845V21.1744V21.1642V21.1541V21.1439V21.1338V21.1236V21.1134V21.1033V21.0931L2.45711 21.083V21.0728L2.46403 21.0627V21.0525V21.0424L2.47096 21.0322V21.0221L2.48134 21.0119V21.0018L2.49173 20.9916L2.49865 20.9814L2.50557 20.9713L2.51249 20.9611L2.51942 20.951L2.52634 20.9408L2.53326 20.9307L2.54019 20.9205L2.54711 20.9104L2.55403 20.9002L2.56096 20.8901L2.56788 20.8799L2.5748 20.8731L2.58173 20.8664L2.58865 20.8596L2.59903 20.8528L2.60596 20.8461L2.61634 20.8393L2.62673 20.8325L2.63711 20.8258L2.6475 20.819L2.65788 20.8122L2.66826 20.8054L2.67865 20.7987L2.68903 20.7919L2.69942 20.7851L2.7098 20.7784L2.72019 20.7716L2.73057 20.7648H2.74096L2.75134 20.7547H2.76173C3.00749 20.6599 3.28096 20.7818 3.37442 21.0187C3.46788 21.259 3.34326 21.5264 3.0975 21.6144L3.08711 21.5974ZM3.00057 21.3707C3.11826 21.3267 3.17711 21.1981 3.13211 21.083C3.08711 20.9679 2.95557 20.9104 2.83788 20.9544H2.83096L2.82403 20.9578H2.81711L2.81019 20.9611H2.80673L2.7998 20.9679H2.79634L2.79288 20.9747H2.78942L2.78596 20.9814H2.7825L2.77903 20.9882H2.77557L2.77211 20.995H2.76865V21.0018H2.76519L2.76173 21.0085H2.75826V21.0153L2.7548 21.0221V21.0322V21.0424V21.0525V21.0627V21.0728V21.083V21.0931V21.0999V21.1067V21.1134V21.1202V21.127V21.1338V21.1405V21.1473V21.1541V21.1608V21.1676V21.2014V21.2082V21.215V21.2218V21.2285V21.2353V21.2421V21.2488V21.2556V21.2624L2.75826 21.2691V21.2759C2.80326 21.391 2.93826 21.4485 3.05596 21.4045L3.00057 21.3707ZM2.37749 20.907L2.0798 20.775L4.76249 14.9568L5.78711 15.4104L7.52134 11.6467C7.6148 11.7008 7.71519 11.7381 7.8225 11.7618L6.05019 15.5999C6.11249 15.7048 6.12634 15.8334 6.07096 15.9519L3.70673 21.0762C3.66519 21.1676 3.58903 21.2353 3.49903 21.2725C3.5198 21.1676 3.51288 21.0593 3.47134 20.9544C3.35365 20.6531 3.00749 20.4974 2.69596 20.6125L2.68211 20.6193L2.66826 20.6261L2.65442 20.6328L2.64057 20.6396L2.62673 20.6464L2.61288 20.6531L2.59903 20.6599L2.58519 20.6667L2.57134 20.6734L2.5575 20.6802L2.54365 20.6904L2.53326 20.7005L2.52288 20.7107L2.51249 20.7208L2.50211 20.731L2.49173 20.7411L2.48134 20.7513L2.47096 20.7614L2.46057 20.7716L2.45019 20.7818L2.4398 20.7919L2.42942 20.8021L2.41903 20.8122L2.41211 20.8224L2.40519 20.8359L2.39826 20.8461L2.39134 20.8596L2.38442 20.8731L2.37749 20.8867L2.37057 20.9002V20.9104L2.37749 20.907Z" fill="#666666"/>
<path fill-rule="evenodd" clip-rule="evenodd" d="M14.8496 21.8205V21.6581C14.8496 21.6242 14.8219 21.5938 14.7873 21.5938H11.26C11.2219 21.5938 11.1942 21.6242 11.1942 21.6581C11.1942 21.7156 11.1873 21.7731 11.1838 21.8205H14.8496Z" fill="#666666"/>
</g>
<defs>
<clipPath id="clip0_410_38">
<rect width="18" height="22" fill="white" transform="matrix(-1 0 0 1 18 0)"/>
</clipPath>
</defs>
</svg>
