<svg width="476" height="477" viewBox="0 0 476 477" fill="none" xmlns="http://www.w3.org/2000/svg">
<path d="M152 107.798C152 110.35 153.612 112.69 156.05 113.391C215.511 130.4 257.032 187.811 257.032 253C257.032 318.189 215.511 375.592 156.05 392.609C153.127 393.449 151.399 396.637 152.193 399.719C152.988 402.809 155.996 404.636 158.919 403.796C223.14 385.417 268 323.408 268 253C268 182.592 223.14 120.575 158.919 102.204C155.996 101.364 152.988 103.191 152.193 106.281C152.062 106.787 152 107.3 152 107.798Z" fill="url(#paint0_linear_14586_1090)"/>
<path d="M152 107.798C152 110.35 153.612 112.69 156.05 113.391C215.511 130.4 257.032 187.811 257.032 253C257.032 318.189 215.511 375.592 156.05 392.609C153.127 393.449 151.399 396.637 152.193 399.719C152.988 402.809 155.996 404.636 158.919 403.796C223.14 385.417 268 323.408 268 253C268 182.592 223.14 120.575 158.919 102.204C155.996 101.364 152.988 103.191 152.193 106.281C152.062 106.787 152 107.3 152 107.798Z" fill="url(#paint1_linear_14586_1090)"/>
<g filter="url(#filter0_d_14586_1090)">
<path d="M257 203C257 204.657 255.657 206 254 206C252.343 206 251 204.657 251 203C251 201.343 252.343 200 254 200C255.657 200 257 201.343 257 203Z" fill="white"/>
</g>
<g filter="url(#filter1_d_14586_1090)">
<path d="M259 297C259 298.657 257.657 300 256 300C254.343 300 253 298.657 253 297C253 295.343 254.343 294 256 294C257.657 294 259 295.343 259 297Z" fill="white"/>
</g>
<g filter="url(#filter2_d_14586_1090)">
<path d="M211 371C211 372.657 209.657 374 208 374C206.343 374 205 372.657 205 371C205 369.343 206.343 368 208 368C209.657 368 211 369.343 211 371Z" fill="white"/>
</g>
<g filter="url(#filter3_d_14586_1090)">
<path d="M219 142C219 143.657 217.657 145 216 145C214.343 145 213 143.657 213 142C213 140.343 214.343 139 216 139C217.657 139 219 140.343 219 142Z" fill="white"/>
</g>
<path d="M157.696 439.458C187.471 435.549 215.868 424.68 240.612 407.723C265.357 390.765 285.761 368.19 300.189 341.807C314.618 315.424 322.67 285.966 323.701 255.793C324.731 225.62 318.711 195.572 306.123 168.056C293.535 140.54 274.73 116.32 251.212 97.3389C227.695 78.3574 200.121 65.1414 170.698 58.7497" stroke="#E0E0E0" stroke-width="2" stroke-linecap="round" stroke-linejoin="round" stroke-dasharray="4 4"/>
<path d="M284.7 455.124C319.084 437.685 348.906 412.435 371.775 381.396C394.644 350.358 409.925 314.394 416.394 276.387C422.862 238.379 420.339 199.385 409.025 162.529C397.711 125.673 377.921 91.9789 351.242 64.1472C324.563 36.3155 287.845 13.8614 251.5 1.0001" stroke="#E0E0E0" stroke-width="2" stroke-linecap="round" stroke-linejoin="round"/>
<defs>
<filter id="filter0_d_14586_1090" x="247" y="196" width="14" height="14" filterUnits="userSpaceOnUse" color-interpolation-filters="sRGB">
<feFlood flood-opacity="0" result="BackgroundImageFix"/>
<feColorMatrix in="SourceAlpha" type="matrix" values="0 0 0 0 0 0 0 0 0 0 0 0 0 0 0 0 0 0 127 0" result="hardAlpha"/>
<feOffset/>
<feGaussianBlur stdDeviation="2"/>
<feComposite in2="hardAlpha" operator="out"/>
<feColorMatrix type="matrix" values="0 0 0 0 0.142705 0 0 0 0 0.674191 0 0 0 0 0.706731 0 0 0 1 0"/>
<feBlend mode="normal" in2="BackgroundImageFix" result="effect1_dropShadow_14586_1090"/>
<feBlend mode="normal" in="SourceGraphic" in2="effect1_dropShadow_14586_1090" result="shape"/>
</filter>
<filter id="filter1_d_14586_1090" x="249" y="290" width="14" height="14" filterUnits="userSpaceOnUse" color-interpolation-filters="sRGB">
<feFlood flood-opacity="0" result="BackgroundImageFix"/>
<feColorMatrix in="SourceAlpha" type="matrix" values="0 0 0 0 0 0 0 0 0 0 0 0 0 0 0 0 0 0 127 0" result="hardAlpha"/>
<feOffset/>
<feGaussianBlur stdDeviation="2"/>
<feComposite in2="hardAlpha" operator="out"/>
<feColorMatrix type="matrix" values="0 0 0 0 0.179896 0 0 0 0 0.621364 0 0 0 0 0.870192 0 0 0 1 0"/>
<feBlend mode="normal" in2="BackgroundImageFix" result="effect1_dropShadow_14586_1090"/>
<feBlend mode="normal" in="SourceGraphic" in2="effect1_dropShadow_14586_1090" result="shape"/>
</filter>
<filter id="filter2_d_14586_1090" x="201" y="364" width="14" height="14" filterUnits="userSpaceOnUse" color-interpolation-filters="sRGB">
<feFlood flood-opacity="0" result="BackgroundImageFix"/>
<feColorMatrix in="SourceAlpha" type="matrix" values="0 0 0 0 0 0 0 0 0 0 0 0 0 0 0 0 0 0 127 0" result="hardAlpha"/>
<feOffset/>
<feGaussianBlur stdDeviation="2"/>
<feComposite in2="hardAlpha" operator="out"/>
<feColorMatrix type="matrix" values="0 0 0 0 0.290472 0 0 0 0 0.821069 0 0 0 0 0.850962 0 0 0 1 0"/>
<feBlend mode="normal" in2="BackgroundImageFix" result="effect1_dropShadow_14586_1090"/>
<feBlend mode="normal" in="SourceGraphic" in2="effect1_dropShadow_14586_1090" result="shape"/>
</filter>
<filter id="filter3_d_14586_1090" x="209" y="135" width="14" height="14" filterUnits="userSpaceOnUse" color-interpolation-filters="sRGB">
<feFlood flood-opacity="0" result="BackgroundImageFix"/>
<feColorMatrix in="SourceAlpha" type="matrix" values="0 0 0 0 0 0 0 0 0 0 0 0 0 0 0 0 0 0 127 0" result="hardAlpha"/>
<feOffset/>
<feGaussianBlur stdDeviation="2"/>
<feComposite in2="hardAlpha" operator="out"/>
<feColorMatrix type="matrix" values="0 0 0 0 0.00573225 0 0 0 0 0.596154 0 0 0 0 0.531978 0 0 0 1 0"/>
<feBlend mode="normal" in2="BackgroundImageFix" result="effect1_dropShadow_14586_1090"/>
<feBlend mode="normal" in="SourceGraphic" in2="effect1_dropShadow_14586_1090" result="shape"/>
</filter>
<linearGradient id="paint0_linear_14586_1090" x1="209.996" y1="404" x2="209.996" y2="101.992" gradientUnits="userSpaceOnUse">
<stop stop-color="#95ECDC"/>
<stop offset="0.35" stop-color="#9DD0FF"/>
<stop offset="1" stop-color="#25CDAB"/>
</linearGradient>
<linearGradient id="paint1_linear_14586_1090" x1="209.996" y1="404" x2="209.996" y2="101.992" gradientUnits="userSpaceOnUse">
<stop stop-color="#95ECDC"/>
<stop offset="0.35" stop-color="#1E87FF"/>
<stop offset="1" stop-color="#25CDAB"/>
</linearGradient>
</defs>
</svg>
