<svg width="28" height="28" viewBox="0 0 28 28" fill="none" xmlns="http://www.w3.org/2000/svg">
<path fill-rule="evenodd" clip-rule="evenodd" d="M3.50586 25.6144H9.71432V17.9952H3.50586V25.6144ZM19.5628 18.8944C19.5628 20.709 19.2828 21.7644 19.2612 24.9844H17.9366C17.9851 23.4229 17.8612 21.4306 17.8666 19.9229C17.8666 19.8798 17.8559 19.8583 17.8343 19.8475C17.8182 19.8583 17.802 19.8744 17.802 19.9175C17.8074 21.4306 17.6836 23.4175 17.732 24.979H16.4074C16.3859 21.759 16.1059 20.7036 16.1059 18.889H19.552L19.5628 18.8944ZM19.8805 18.4152C19.8212 18.566 19.7459 18.5875 19.7459 19.0398L19.762 19.3413C19.762 19.4113 19.8589 19.4275 19.8912 19.3575C19.9612 19.2337 19.9774 19.099 19.9882 18.959C20.0528 19.0667 20.1228 19.3036 20.1066 19.4275C20.0851 19.589 20.0043 19.756 19.9289 19.8798C19.8912 19.9821 19.9882 20.036 20.1389 19.9336C20.3543 19.7775 20.4836 19.589 20.6128 19.2337C20.6612 18.9698 20.6182 18.5929 20.5374 18.4152H20.6451C20.6989 17.0906 20.6559 15.7821 20.5536 14.6298C20.462 13.5798 19.9882 13.2029 19.2397 12.8529L19.0297 13.6229L18.642 13.7521L18.9005 14.0698L17.9582 15.7552L17.8451 15.9813V18.8513H19.5843L19.7512 15.9598L19.7728 18.4206H19.8751L19.8805 18.4152ZM20.4889 18.4152C20.5966 18.5983 20.6074 19.0236 20.5751 19.2229C20.4728 19.5029 20.3597 19.7236 20.1174 19.896C20.0851 19.9175 19.9397 19.9929 19.972 19.896C20.0582 19.7613 20.1336 19.589 20.1497 19.4329C20.1659 19.2983 20.0905 19.056 20.0205 18.9375L19.9559 18.8244L19.9451 18.9536C19.9343 19.0883 19.9182 19.2175 19.8482 19.3413C19.8374 19.3683 19.7997 19.3683 19.7997 19.3413L19.7836 19.0398C19.7836 18.8029 19.7836 18.6413 19.9128 18.4367V18.4152H20.4836H20.4889ZM17.7912 18.846V15.9383L17.6836 15.7498L16.7412 14.0644L16.9997 13.7467L16.612 13.6175L16.402 12.8475C15.6374 13.2083 15.2389 13.5744 15.1097 14.4413C15.0505 14.8613 15.0343 15.3244 15.0128 15.7444C14.9697 16.6006 14.9643 17.4998 15.002 18.4313H15.1043C15.0074 18.5875 14.9589 18.9967 15.0074 19.2767C15.1366 19.6321 15.2659 19.8206 15.4812 19.9767C15.6266 20.079 15.7236 20.0252 15.6912 19.9229C15.6159 19.8044 15.5351 19.6321 15.5136 19.4706C15.4974 19.3467 15.5728 19.1098 15.632 19.0021C15.6428 19.1421 15.6589 19.2767 15.7289 19.4006C15.7612 19.4706 15.8636 19.4544 15.8582 19.3844L15.8743 19.0829C15.8743 18.8567 15.8743 18.6683 15.7397 18.4583C15.7397 18.4421 15.7343 18.4313 15.7289 18.4152H15.8636L15.8851 15.9437L16.052 18.8352H17.7859L17.7912 18.846ZM17.7051 25.0329C17.7374 25.1298 17.7589 25.2321 17.7589 25.3398C17.7589 25.3937 17.7589 25.4475 17.7428 25.5013H17.7536V25.6198H16.402V25.5013H16.4128C16.402 25.4475 16.3966 25.3937 16.3966 25.3398C16.3966 25.2321 16.4182 25.1298 16.4505 25.0329H17.7051ZM17.9689 25.0329C17.9366 25.1244 17.9151 25.2321 17.9151 25.3398C17.9151 25.3937 17.9151 25.4475 17.9312 25.5013H17.9205V25.6144H19.272V25.5013H19.2612C19.272 25.4475 19.2774 25.3937 19.2774 25.3398C19.2774 25.2321 19.2559 25.1244 19.2236 25.0329H17.9689ZM17.2097 9.95057C17.1182 9.93442 17.032 9.97211 16.962 10.0367C16.8866 10.1067 16.8328 10.1983 16.8166 10.2952V10.3006C16.8005 10.3921 16.7843 10.489 16.7736 10.586C16.7628 10.6775 16.7574 10.7637 16.752 10.8552C16.752 10.8552 16.752 10.866 16.752 10.8767C16.752 10.8875 16.752 10.8929 16.7466 10.8983V10.9198L16.7089 10.9144C16.7089 10.9144 16.7036 10.9144 16.6982 10.9144C16.6982 10.9144 16.6497 10.9198 16.6174 10.9467C16.5905 10.9683 16.5636 11.0113 16.5636 11.0813V11.0921C16.5636 11.1513 16.5905 11.2644 16.6336 11.3613C16.6551 11.4098 16.6766 11.4583 16.7036 11.4906C16.7251 11.5175 16.752 11.5337 16.7736 11.5337C16.7736 11.5337 16.7843 11.5337 16.7951 11.5337L16.8274 11.5175L16.8382 11.5498C16.9512 11.846 17.0805 12.0775 17.242 12.2498C17.4036 12.4167 17.592 12.5298 17.8289 12.589C18.0712 12.5298 18.2705 12.4221 18.432 12.2552C18.4428 12.2444 18.4536 12.2283 18.4643 12.2175C18.6151 12.0506 18.7336 11.8298 18.8412 11.5498L18.852 11.5175L18.8843 11.5337C18.8843 11.5337 18.8951 11.5337 18.9005 11.5337C18.922 11.5337 18.9489 11.5175 18.9705 11.4906C18.9974 11.4583 19.0243 11.4152 19.0405 11.3613C19.0836 11.2644 19.1051 11.1513 19.1105 11.0921V11.0813C19.1105 11.0113 19.0836 10.9683 19.0566 10.9467C19.0297 10.9252 18.992 10.9144 18.9759 10.9144C18.9759 10.9144 18.9705 10.9144 18.9651 10.9144H18.9274V10.9037C18.9274 10.9037 18.922 10.8929 18.922 10.8821C18.922 10.8767 18.922 10.866 18.922 10.8606C18.922 10.769 18.9112 10.6829 18.9005 10.5913C18.8897 10.4944 18.8736 10.3975 18.8574 10.306C18.8412 10.2036 18.782 10.1067 18.712 10.0421C18.642 9.9775 18.5505 9.9398 18.4643 9.95596C18.3566 9.9775 18.2543 9.99365 18.152 10.0044C18.0497 10.0152 17.9528 10.0206 17.8559 10.0206H17.8451H17.8397C17.7428 10.0206 17.6405 10.0152 17.5436 10.0044C17.4412 9.99365 17.3389 9.9775 17.2312 9.95596L17.2097 9.95057ZM15.6482 19.9498C15.6805 20.0467 15.5351 19.9767 15.5028 19.9498C15.2605 19.7721 15.1474 19.5513 15.0451 19.2767C15.0074 19.0721 15.0236 18.6144 15.1474 18.4475V18.4367H15.6805C15.6805 18.4367 15.6859 18.4636 15.6912 18.4798V18.4906C15.8151 18.6898 15.8205 18.8675 15.8205 19.0883L15.8043 19.3898C15.8043 19.4167 15.7666 19.4167 15.7559 19.3898C15.6859 19.266 15.6751 19.1367 15.6589 19.0021L15.6482 18.8729L15.5836 18.986C15.5136 19.1044 15.4382 19.3467 15.4543 19.4813C15.4759 19.6375 15.5512 19.8098 15.632 19.9444L15.6482 19.9498ZM17.8936 12.9337C18.1412 12.869 18.3782 12.7613 18.5612 12.5729L18.6582 12.6267L18.6259 12.729L18.2489 13.2783L18.1143 13.1437L17.8936 12.9337ZM18.2274 13.359L18.0389 13.176L18.0012 13.3052L18.0659 14.2637L17.8182 14.996L17.5759 14.2529L17.6405 13.3213L17.6028 13.1813L17.4143 13.3644L17.382 13.3913L17.3605 13.359L17.1343 13.0306L17.7859 15.0067V15.879L17.7212 15.7606L16.7951 14.1021L16.7843 14.0806L16.8005 14.0644L17.0643 13.7467L16.6605 13.6121H16.6443V13.5852L16.4397 12.8367L16.4289 12.8098L16.4559 12.799L16.892 12.6052L17.0536 12.519V12.1475C16.9459 11.9967 16.8543 11.819 16.7736 11.609C16.7736 11.609 16.7682 11.609 16.7628 11.609C16.7143 11.609 16.6712 11.5821 16.6336 11.539C16.6012 11.5013 16.5743 11.4475 16.5474 11.3937C16.5043 11.286 16.4774 11.1675 16.472 11.1029C16.472 11.0975 16.472 11.0921 16.472 11.0867C16.472 10.9898 16.5097 10.9306 16.5528 10.8983C16.5905 10.8713 16.6282 10.8606 16.6551 10.8552C16.5851 10.2037 16.5151 9.53057 16.8489 8.96519C17.4789 8.85211 18.7874 9.15365 19.062 9.7998C19.1482 10.1337 19.0836 10.4998 19.0243 10.866C19.0459 10.8713 19.062 10.8821 19.0836 10.8983C19.1266 10.9306 19.1643 10.9898 19.1643 11.0867C19.1643 11.0867 19.1643 11.0921 19.1643 11.1029C19.1643 11.1675 19.1374 11.2913 19.0889 11.3937C19.0674 11.4475 19.0351 11.5013 19.0028 11.539C18.9651 11.5821 18.922 11.609 18.8736 11.609C18.8736 11.609 18.8736 11.609 18.8628 11.609C18.7766 11.8352 18.6797 12.0183 18.5666 12.1744V12.519L18.6905 12.589L19.1643 12.799L19.1912 12.8098L19.1805 12.8367L18.9759 13.5852V13.6013L18.9543 13.6067L18.5505 13.7413L18.8143 14.059L18.8305 14.0752L18.8197 14.0967L17.8289 15.879V15.7552V15.0013L18.5074 12.9767L18.2489 13.3536L18.2274 13.386L18.1951 13.359H18.2274ZM17.8236 12.8798C17.6782 12.8421 17.5436 12.799 17.4251 12.7344C17.312 12.6752 17.2097 12.6052 17.1236 12.5137V12.2283C17.1236 12.2283 17.1612 12.2713 17.1828 12.2929C17.3551 12.476 17.5597 12.5944 17.8128 12.6537H17.8289C18.152 12.589 18.3459 12.4221 18.5236 12.2444V12.5083C18.4374 12.6106 18.3297 12.6752 18.2166 12.7344C18.0982 12.7937 17.9689 12.8421 17.8182 12.8798H17.8236ZM17.0051 12.616L17.0859 12.5729C17.172 12.6644 17.2797 12.7344 17.3982 12.7937C17.5059 12.8475 17.6243 12.896 17.7589 12.9283L17.4036 13.2729L17.0643 12.7721L17.0105 12.6106L17.0051 12.616ZM18.0282 17.5483C18.0766 17.5483 18.1197 17.586 18.1197 17.6398C18.1197 17.6936 18.0766 17.7313 18.0282 17.7313C17.9797 17.7313 17.9366 17.6936 17.9366 17.6398C17.9366 17.586 17.9797 17.5483 18.0282 17.5483ZM18.0336 16.8698C18.082 16.8698 18.1251 16.9129 18.1251 16.9613C18.1251 17.0098 18.082 17.0529 18.0336 17.0529C17.9851 17.0529 17.942 17.0098 17.942 16.9613C17.942 16.9129 17.9851 16.8698 18.0336 16.8698ZM18.0336 16.1967C18.082 16.1967 18.1251 16.2344 18.1251 16.2883C18.1251 16.3421 18.082 16.3798 18.0336 16.3798C17.9851 16.3798 17.942 16.3367 17.942 16.2883C17.942 16.2398 17.9851 16.1967 18.0336 16.1967ZM18.5882 3.52134C18.8251 3.52134 19.0189 3.71519 19.0189 3.95211C19.0189 4.18904 18.8251 4.38288 18.5882 4.38288C18.3512 4.38288 18.1574 4.18904 18.1574 3.95211C18.1574 3.71519 18.3512 3.52134 18.5882 3.52134ZM18.5882 3.70442C18.4482 3.70442 18.3351 3.8175 18.3351 3.9575C18.3351 4.0975 18.4482 4.21057 18.5882 4.21057C18.7282 4.21057 18.8412 4.0975 18.8412 3.9575C18.8412 3.8175 18.7282 3.70442 18.5882 3.70442ZM17.2205 3.52134C17.4574 3.52134 17.6512 3.71519 17.6512 3.95211C17.6512 4.18904 17.4574 4.38288 17.2205 4.38288C16.9836 4.38288 16.7897 4.18904 16.7897 3.95211C16.7897 3.71519 16.9836 3.52134 17.2205 3.52134ZM17.2205 4.20519C17.3605 4.20519 17.4736 4.09211 17.4736 3.95211C17.4736 3.81211 17.3605 3.69904 17.2205 3.69904C17.0805 3.69904 16.9674 3.81211 16.9674 3.95211C16.9674 4.09211 17.0805 4.20519 17.2205 4.20519ZM23.3859 25.6144H24.4951V5.36288H11.3136V25.6144H12.4228V6.47211H23.3859V25.6144ZM11.3136 2.7998V5.01827H24.4951V2.7998H11.3136ZM15.9605 3.33288V4.48519H19.8428V3.33288H15.9605ZM4.05509 18.539H9.15971V20.8275H4.05509V18.539ZM5.63278 17.4729H7.58201L7.6574 17.656V17.7475H5.5574V17.656L5.63278 17.4729ZM5.61663 15.6044H7.60355C7.6574 15.6044 7.70047 15.5613 7.70047 15.5075V14.156C7.70047 14.1021 7.6574 14.059 7.60355 14.059H5.61663C5.56278 14.059 5.51971 14.1021 5.51971 14.156V15.5075C5.51971 15.5613 5.56278 15.6044 5.61663 15.6044ZM9.01971 13.6336V16.0567H4.20047V13.6336H9.01432H9.01971ZM3.97971 13.0683H9.24047V16.2829H3.97971V13.0683ZM3.88817 12.729H9.32663C9.43971 12.729 9.53663 12.8206 9.53663 12.939V16.7783C9.53663 16.8913 9.44509 16.9883 9.32663 16.9883H7.33432V17.3436H5.88047V16.9883H3.88817C3.77509 16.9883 3.67817 16.8967 3.67817 16.7783V12.939C3.67817 12.826 3.76971 12.729 3.88817 12.729ZM3.88817 12.8044H9.32663C9.39663 12.8044 9.45586 12.8637 9.45586 12.9337V16.5306H3.75894V12.9337C3.75894 12.8637 3.81817 12.8044 3.88817 12.8044ZM3.81817 18.3021H9.40201V21.0698H3.81817V18.3021Z" fill="white"/>
</svg>
