<svg width="37" height="30" viewBox="0 0 37 30" fill="none" xmlns="http://www.w3.org/2000/svg">
<path d="M9.88675 12.875H9.25391V24.235H9.88675V12.875Z" fill="url(#paint0_linear_509_179)"/>
<path d="M31.8206 24.6949C31.8206 25.0305 31.5523 25.3024 31.2212 25.3024H6.15018C5.81911 25.3024 5.55078 25.0305 5.55078 24.6949C5.55078 24.3594 5.81911 24.0874 6.15018 24.0874H31.2212C31.5523 24.0874 31.8206 24.3594 31.8206 24.6949Z" fill="url(#paint1_linear_509_179)"/>
<path d="M13.959 5.53355V12.7607C13.959 13.222 13.5894 13.5965 13.1343 13.5965H6.00354C5.54844 13.5965 5.17888 13.222 5.17888 12.7607V5.53355C5.17888 5.0723 5.54844 4.69775 6.00354 4.69775L13.1343 4.69775C13.5896 4.69775 13.959 5.0723 13.959 5.53355Z" fill="url(#paint2_linear_509_179)"/>
<path d="M13.1357 13.2465H6.00491C5.74043 13.2465 5.52539 13.0286 5.52539 12.7605V5.53336C5.52539 5.26546 5.74043 5.04736 6.00491 5.04736H13.1357C13.4002 5.04736 13.6152 5.26546 13.6152 5.53336V12.7605C13.6152 13.0286 13.4002 13.2465 13.1357 13.2465ZM6.00491 5.12506C5.78276 5.12506 5.60205 5.30821 5.60205 5.53336V12.7605C5.60205 12.9857 5.78276 13.1688 6.00491 13.1688H13.1357C13.3578 13.1688 13.5386 12.9857 13.5386 12.7605V5.53336C13.5386 5.30821 13.3578 5.12506 13.1357 5.12506H6.00491Z" fill="white"/>
<path d="M9.81937 6.62207H7.98047V11.6723H8.75377V9.65477H9.77364C10.7834 9.65477 11.4361 9.05312 11.4361 8.12207C11.4361 7.19102 10.8015 6.62222 9.81937 6.62222V6.62207ZM9.80634 8.90402H8.75392V7.37267H9.83239C10.3477 7.37267 10.6434 7.65062 10.6434 8.13512C10.6434 8.65247 10.3696 8.90402 9.80634 8.90402Z" fill="white"/>
<path d="M27.4968 17.7123L26.3016 16.7797L26.2985 16.7644H27.454C27.5542 16.7644 27.6355 16.6716 27.6355 16.5571V15.4347C27.6355 15.3202 27.5542 15.2274 27.454 15.2274H25.9863L25.6359 13.5015C25.5192 12.9268 25.0709 12.52 24.5547 12.52H17.0684C16.5521 12.52 16.1039 12.9268 15.9873 13.5015L15.6368 15.2274H14.1691C14.0689 15.2274 13.9877 15.3202 13.9877 15.4347V16.5571C13.9877 16.6716 14.0689 16.7644 14.1691 16.7644H15.3247L15.3219 16.7781L14.1244 17.7124C13.6408 18.0898 13.3516 18.7156 13.3516 19.3846V23.7393C13.3516 23.9524 13.5028 24.1254 13.6894 24.1254H15.4209C15.6075 24.1254 15.7588 23.9526 15.7588 23.7393V22.4211H25.8624V23.7393C25.8624 23.9524 26.0137 24.1254 26.2003 24.1254H27.9318C28.1184 24.1254 28.2697 23.9526 28.2697 23.7393V19.3846C28.2697 18.7156 27.9805 18.0898 27.4968 17.7124V17.7123ZM16.632 13.6723C16.6793 13.4391 16.8587 13.2762 17.0684 13.2762H24.5547C24.7643 13.2762 24.9438 13.4391 24.9912 13.6723L25.5493 16.42H16.0742L16.6321 13.6723H16.632ZM16.9561 19.9066L16.9527 19.9693C16.9443 20.128 16.8248 20.2488 16.686 20.2392L14.5915 20.0941C14.4527 20.0845 14.3469 19.948 14.3553 19.7895L14.3834 19.2598C14.3919 19.1011 14.5113 18.9804 14.6501 18.99L16.3358 19.1067C16.7005 19.1319 16.9782 19.4901 16.956 19.9066H16.9561ZM24.4621 21.5653C24.4621 21.7224 24.3366 21.8496 24.1816 21.8496H17.4396C17.2847 21.8496 17.1592 21.7224 17.1592 21.5653V21.3198C17.1592 21.0349 17.3869 20.8041 17.668 20.8041H23.9534C24.2344 20.8041 24.4622 21.0349 24.4622 21.3198V21.5653H24.4621ZM27.0296 20.0943L24.9351 20.2393C24.7963 20.2489 24.6768 20.1282 24.6684 19.9695L24.6651 19.9068C24.6431 19.4902 24.9207 19.1322 25.2852 19.1068L26.971 18.9901C27.1098 18.9805 27.2292 19.1013 27.2377 19.26L27.2658 19.7896C27.2742 19.9483 27.1684 20.0847 27.0296 20.0943Z" fill="url(#paint3_linear_509_179)"/>
<defs>
<linearGradient id="paint0_linear_509_179" x1="9.61044" y1="4.4615" x2="9.551" y2="24.7643" gradientUnits="userSpaceOnUse">
<stop stop-color="#005AB5"/>
<stop offset="1" stop-color="#003871"/>
</linearGradient>
<linearGradient id="paint1_linear_509_179" x1="18.6978" y1="23.8936" x2="18.6464" y2="27.2137" gradientUnits="userSpaceOnUse">
<stop stop-color="#005AB5"/>
<stop offset="1" stop-color="#003871"/>
</linearGradient>
<linearGradient id="paint2_linear_509_179" x1="8.72319" y1="3.92585" x2="10.296" y2="13.3784" gradientUnits="userSpaceOnUse">
<stop stop-color="#007EFF"/>
<stop offset="1" stop-color="#005DBB"/>
</linearGradient>
<linearGradient id="paint3_linear_509_179" x1="21.0726" y1="12.0766" x2="20.7133" y2="24.7225" gradientUnits="userSpaceOnUse">
<stop stop-color="#005AB5"/>
<stop offset="1" stop-color="#003871"/>
</linearGradient>
</defs>
</svg>
