<svg width="19" height="19" viewBox="0 0 19 19" fill="none" xmlns="http://www.w3.org/2000/svg">
<path d="M1.56406 9.15233C1.56406 8.72398 1.21406 8.37695 0.782031 8.37695C0.35 8.37695 0 8.72398 0 9.15233C0 9.58069 0.35 9.92771 0.782031 9.92771C1.21406 9.92771 1.56406 9.58069 1.56406 9.15233Z" fill="url(#paint0_linear_449_1230)"/>
<path d="M17.6746 8.37695C17.2426 8.37695 16.8926 8.72398 16.8926 9.15233C16.8926 9.58069 17.2426 9.92771 17.6746 9.92771C18.1066 9.92771 18.4566 9.58069 18.4566 9.15233C18.4621 8.72398 18.1066 8.37695 17.6746 8.37695Z" fill="url(#paint1_linear_449_1230)"/>
<path d="M9.22539 16.7549C8.79336 16.7549 8.44336 17.1019 8.44336 17.5303C8.44336 17.9586 8.79336 18.3056 9.22539 18.3056C9.65742 18.3056 10.0074 17.9586 10.0074 17.5303C10.0129 17.1019 9.66289 16.7549 9.22539 16.7549Z" fill="url(#paint2_linear_449_1230)"/>
<path d="M9.22539 0C8.79336 0 8.44336 0.347023 8.44336 0.77538C8.44336 1.20374 8.79336 1.55076 9.22539 1.55076C9.65742 1.55076 10.0074 1.20374 10.0074 0.77538C10.0129 0.347023 9.66289 0 9.22539 0Z" fill="url(#paint3_linear_449_1230)"/>
<path d="M1.51943 12.6719C1.14755 12.8888 1.0163 13.3605 1.23505 13.7346C1.4538 14.1033 1.92959 14.2335 2.30693 14.0166C2.6788 13.7997 2.81005 13.328 2.5913 12.9538C2.37255 12.5797 1.8913 12.455 1.51943 12.6719Z" fill="url(#paint4_linear_449_1230)"/>
<path d="M16.937 5.63355C17.3089 5.41666 17.4402 4.94493 17.2214 4.5708C17.0027 4.20208 16.5269 4.07195 16.1495 4.28884C15.7722 4.50573 15.6464 4.97746 15.8652 5.3516C16.0839 5.72573 16.5652 5.85044 16.937 5.63355Z" fill="url(#paint5_linear_449_1230)"/>
<ellipse cx="13.4539" cy="16.4072" rx="0.782031" ry="0.77538" fill="url(#paint6_linear_449_1230)"/>
<path d="M4.60927 1.22588C4.2374 1.44277 4.10615 1.91451 4.3249 2.28864C4.54365 2.66278 5.01943 2.78749 5.39677 2.5706C5.76865 2.35371 5.8999 1.88197 5.68115 1.50784C5.4624 1.13913 4.98662 1.01442 4.60927 1.22588Z" fill="url(#paint7_linear_449_1230)"/>
<path d="M16.9358 12.6717C16.564 12.4548 16.0827 12.5849 15.864 12.9536C15.6452 13.3223 15.7765 13.7995 16.1483 14.0164C16.5202 14.2333 17.0015 14.1031 17.2202 13.7344C17.439 13.3603 17.3077 12.8831 16.9358 12.6717Z" fill="url(#paint8_linear_449_1230)"/>
<path d="M2.30302 4.2947C1.93115 4.07781 1.4499 4.20794 1.23115 4.57665C1.0124 4.94537 1.14365 5.42252 1.51552 5.63941C1.8874 5.8563 2.36865 5.72617 2.5874 5.35746C2.80615 4.98874 2.6749 4.50617 2.30302 4.2947Z" fill="url(#paint9_linear_449_1230)"/>
<path d="M5.39677 15.7351C5.0249 15.5182 4.54365 15.6484 4.3249 16.0171C4.10615 16.3858 4.2374 16.863 4.60927 17.0798C4.98115 17.2967 5.4624 17.1666 5.68115 16.7979C5.89443 16.4238 5.76865 15.952 5.39677 15.7351Z" fill="url(#paint10_linear_449_1230)"/>
<path d="M13.846 1.22536C13.4741 1.00847 12.9929 1.13861 12.7741 1.50732C12.5554 1.87603 12.6866 2.35319 13.0585 2.57008C13.4304 2.78697 13.9116 2.65683 14.1304 2.28812C14.3436 1.91399 14.2179 1.44225 13.846 1.22536Z" fill="url(#paint11_linear_449_1230)"/>
<ellipse cx="9.22578" cy="9.15239" rx="6.79219" ry="6.73442" fill="url(#paint12_linear_449_1230)"/>
<path d="M2.43945 9.15238C2.43945 12.872 5.48008 15.8868 9.23164 15.8868C12.9832 15.8868 16.0238 12.872 16.0238 9.15238C16.0238 8.65353 15.9691 8.16553 15.8652 7.69922H2.59805C2.49414 8.16553 2.43945 8.65353 2.43945 9.15238Z" fill="url(#paint13_linear_449_1230)"/>
<path d="M9.22656 2.41797C8.67969 2.41797 8.14922 2.48304 7.64062 2.60232V15.6916C8.14922 15.8109 8.67969 15.876 9.22656 15.876C12.9781 15.876 16.0188 12.8612 16.0188 9.14154C16.0188 5.43273 12.9781 2.41797 9.22656 2.41797V2.41797Z" fill="url(#paint14_linear_449_1230)"/>
<defs>
<linearGradient id="paint0_linear_449_1230" x1="-0.177352" y1="9.16806" x2="0.786687" y2="10.1404" gradientUnits="userSpaceOnUse">
<stop stop-color="#FEF48B"/>
<stop offset="0.1646" stop-color="#FDF286"/>
<stop offset="0.3352" stop-color="#FDEE7A"/>
<stop offset="0.5086" stop-color="#FCE765"/>
<stop offset="0.6839" stop-color="#FCDE48"/>
<stop offset="0.8589" stop-color="#FBD123"/>
<stop offset="1" stop-color="#FAC600"/>
</linearGradient>
<linearGradient id="paint1_linear_449_1230" x1="16.7204" y1="9.16804" x2="17.6844" y2="10.1404" gradientUnits="userSpaceOnUse">
<stop stop-color="#FEF48B"/>
<stop offset="0.1646" stop-color="#FDF286"/>
<stop offset="0.3352" stop-color="#FDEE7A"/>
<stop offset="0.5086" stop-color="#FCE765"/>
<stop offset="0.6839" stop-color="#FCDE48"/>
<stop offset="0.8589" stop-color="#FBD123"/>
<stop offset="1" stop-color="#FAC600"/>
</linearGradient>
<linearGradient id="paint2_linear_449_1230" x1="8.27127" y1="17.5458" x2="9.23532" y2="18.5182" gradientUnits="userSpaceOnUse">
<stop stop-color="#FEF48B"/>
<stop offset="0.1646" stop-color="#FDF286"/>
<stop offset="0.3352" stop-color="#FDEE7A"/>
<stop offset="0.5086" stop-color="#FCE765"/>
<stop offset="0.6839" stop-color="#FCDE48"/>
<stop offset="0.8589" stop-color="#FBD123"/>
<stop offset="1" stop-color="#FAC600"/>
</linearGradient>
<linearGradient id="paint3_linear_449_1230" x1="8.27127" y1="0.79122" x2="9.23532" y2="1.76362" gradientUnits="userSpaceOnUse">
<stop stop-color="#FEF48B"/>
<stop offset="0.1646" stop-color="#FDF286"/>
<stop offset="0.3352" stop-color="#FDEE7A"/>
<stop offset="0.5086" stop-color="#FCE765"/>
<stop offset="0.6839" stop-color="#FCDE48"/>
<stop offset="0.8589" stop-color="#FBD123"/>
<stop offset="1" stop-color="#FAC600"/>
</linearGradient>
<linearGradient id="paint4_linear_449_1230" x1="0.953814" y1="13.3575" x2="1.91887" y2="14.3294" gradientUnits="userSpaceOnUse">
<stop stop-color="#FEF48B"/>
<stop offset="0.1646" stop-color="#FDF286"/>
<stop offset="0.3352" stop-color="#FDEE7A"/>
<stop offset="0.5086" stop-color="#FCE765"/>
<stop offset="0.6839" stop-color="#FCDE48"/>
<stop offset="0.8589" stop-color="#FBD123"/>
<stop offset="1" stop-color="#FAC600"/>
</linearGradient>
<linearGradient id="paint5_linear_449_1230" x1="15.5889" y1="4.97971" x2="16.5532" y2="5.9523" gradientUnits="userSpaceOnUse">
<stop stop-color="#FEF48B"/>
<stop offset="0.1646" stop-color="#FDF286"/>
<stop offset="0.3352" stop-color="#FDEE7A"/>
<stop offset="0.5086" stop-color="#FCE765"/>
<stop offset="0.6839" stop-color="#FCDE48"/>
<stop offset="0.8589" stop-color="#FBD123"/>
<stop offset="1" stop-color="#FAC600"/>
</linearGradient>
<linearGradient id="paint6_linear_449_1230" x1="12.4968" y1="16.4229" x2="13.4611" y2="17.3954" gradientUnits="userSpaceOnUse">
<stop stop-color="#FEF48B"/>
<stop offset="0.1646" stop-color="#FDF286"/>
<stop offset="0.3352" stop-color="#FDEE7A"/>
<stop offset="0.5086" stop-color="#FCE765"/>
<stop offset="0.6839" stop-color="#FCDE48"/>
<stop offset="0.8589" stop-color="#FBD123"/>
<stop offset="1" stop-color="#FAC600"/>
</linearGradient>
<linearGradient id="paint7_linear_449_1230" x1="4.04564" y1="1.91367" x2="5.00918" y2="2.887" gradientUnits="userSpaceOnUse">
<stop stop-color="#FEF48B"/>
<stop offset="0.1646" stop-color="#FDF286"/>
<stop offset="0.3352" stop-color="#FDEE7A"/>
<stop offset="0.5086" stop-color="#FCE765"/>
<stop offset="0.6839" stop-color="#FCDE48"/>
<stop offset="0.8589" stop-color="#FBD123"/>
<stop offset="1" stop-color="#FAC600"/>
</linearGradient>
<linearGradient id="paint8_linear_449_1230" x1="15.5877" y1="13.3569" x2="16.552" y2="14.3295" gradientUnits="userSpaceOnUse">
<stop stop-color="#FEF48B"/>
<stop offset="0.1646" stop-color="#FDF286"/>
<stop offset="0.3352" stop-color="#FDEE7A"/>
<stop offset="0.5086" stop-color="#FCE765"/>
<stop offset="0.6839" stop-color="#FCDE48"/>
<stop offset="0.8589" stop-color="#FBD123"/>
<stop offset="1" stop-color="#FAC600"/>
</linearGradient>
<linearGradient id="paint9_linear_449_1230" x1="0.955004" y1="4.98015" x2="1.91931" y2="5.95273" gradientUnits="userSpaceOnUse">
<stop stop-color="#FEF48B"/>
<stop offset="0.1646" stop-color="#FDF286"/>
<stop offset="0.3352" stop-color="#FDEE7A"/>
<stop offset="0.5086" stop-color="#FCE765"/>
<stop offset="0.6839" stop-color="#FCDE48"/>
<stop offset="0.8589" stop-color="#FBD123"/>
<stop offset="1" stop-color="#FAC600"/>
</linearGradient>
<linearGradient id="paint10_linear_449_1230" x1="4.04677" y1="16.4239" x2="5.0126" y2="17.395" gradientUnits="userSpaceOnUse">
<stop stop-color="#FEF48B"/>
<stop offset="0.1646" stop-color="#FDF286"/>
<stop offset="0.3352" stop-color="#FDEE7A"/>
<stop offset="0.5086" stop-color="#FCE765"/>
<stop offset="0.6839" stop-color="#FCDE48"/>
<stop offset="0.8589" stop-color="#FBD123"/>
<stop offset="1" stop-color="#FAC600"/>
</linearGradient>
<linearGradient id="paint11_linear_449_1230" x1="12.4959" y1="1.91427" x2="13.4617" y2="2.88537" gradientUnits="userSpaceOnUse">
<stop stop-color="#FEF48B"/>
<stop offset="0.1646" stop-color="#FDF286"/>
<stop offset="0.3352" stop-color="#FDEE7A"/>
<stop offset="0.5086" stop-color="#FCE765"/>
<stop offset="0.6839" stop-color="#FCDE48"/>
<stop offset="0.8589" stop-color="#FBD123"/>
<stop offset="1" stop-color="#FAC600"/>
</linearGradient>
<linearGradient id="paint12_linear_449_1230" x1="0.930316" y1="9.28835" x2="9.29332" y2="17.7231" gradientUnits="userSpaceOnUse">
<stop stop-color="#FEF48B"/>
<stop offset="0.1646" stop-color="#FDF286"/>
<stop offset="0.3352" stop-color="#FDEE7A"/>
<stop offset="0.5086" stop-color="#FCE765"/>
<stop offset="0.6839" stop-color="#FCDE48"/>
<stop offset="0.8589" stop-color="#FBD123"/>
<stop offset="1" stop-color="#FAC600"/>
</linearGradient>
<linearGradient id="paint13_linear_449_1230" x1="3.75576" y1="9.39529" x2="3.75576" y2="15.9926" gradientUnits="userSpaceOnUse">
<stop stop-color="#FE9738" stop-opacity="0.01"/>
<stop offset="0.1207" stop-color="#FE9738" stop-opacity="0.016"/>
<stop offset="0.2459" stop-color="#FE9738" stop-opacity="0.065"/>
<stop offset="0.3731" stop-color="#FE9738" stop-opacity="0.147"/>
<stop offset="0.5018" stop-color="#FE9738" stop-opacity="0.262"/>
<stop offset="0.6317" stop-color="#FE9738" stop-opacity="0.41"/>
<stop offset="0.7625" stop-color="#FE9738" stop-opacity="0.59"/>
<stop offset="0.8916" stop-color="#FE9738" stop-opacity="0.8"/>
<stop offset="1" stop-color="#FE9738"/>
</linearGradient>
<linearGradient id="paint14_linear_449_1230" x1="8.04821" y1="14.8725" x2="15.5506" y2="15.8334" gradientUnits="userSpaceOnUse">
<stop stop-color="#FE9738" stop-opacity="0.01"/>
<stop offset="0.1207" stop-color="#FE9738" stop-opacity="0.016"/>
<stop offset="0.2459" stop-color="#FE9738" stop-opacity="0.065"/>
<stop offset="0.3731" stop-color="#FE9738" stop-opacity="0.147"/>
<stop offset="0.5018" stop-color="#FE9738" stop-opacity="0.262"/>
<stop offset="0.6317" stop-color="#FE9738" stop-opacity="0.41"/>
<stop offset="0.7625" stop-color="#FE9738" stop-opacity="0.59"/>
<stop offset="0.8916" stop-color="#FE9738" stop-opacity="0.8"/>
<stop offset="1" stop-color="#FE9738"/>
</linearGradient>
</defs>
</svg>
